<svg xmlns="http://www.w3.org/2000/svg" width="22.327" height="28.134" viewBox="0 0 22.327 28.134">
  <g id="cart" transform="translate(0 0)">
    <g id="Layer_2" data-name="Layer 2" transform="translate(0 0)">
      <path id="Path_5419" data-name="Path 5419" d="M15.633,17.449a5.627,5.627,0,0,1-5.524-4.52.95.95,0,0,1,1.876-.3,3.751,3.751,0,0,0,7.343,0,.95.95,0,0,1,1.876.3A5.627,5.627,0,0,1,15.633,17.449Z" transform="translate(-4.47 -1.675)" fill="#fff"/>
      <path id="Path_5420" data-name="Path 5420" d="M23.606,29.553H6.913A2.813,2.813,0,0,1,4.1,26.6l.76-16.168A2.813,2.813,0,0,1,7.673,7.74H22.847a2.813,2.813,0,0,1,2.813,2.692L26.42,26.6a2.813,2.813,0,0,1-2.813,2.954ZM7.673,9.625a.938.938,0,0,0-.938.938l-.76,16.13a.938.938,0,0,0,.938.985H23.606a.938.938,0,0,0,.938-.985l-.76-16.168a.938.938,0,0,0-.938-.938Z" transform="translate(-4.096 -1.419)" fill="#fff"/>
      <path id="Path_5421" data-name="Path 5421" d="M21.254,8.268H19.378V6.627a3.751,3.751,0,0,0-7.5,0V8.268H10V6.627a5.627,5.627,0,0,1,11.254,0Z" transform="translate(-4.463 -1)" fill="#fff"/>
    </g>
  </g>
</svg>
