<svg xmlns="http://www.w3.org/2000/svg" width="24" height="25.794" viewBox="0 0 24 25.794">
  <g id="user" transform="translate(-96 -85.91)">
    <path id="Path_5467" data-name="Path 5467" d="M165.4,98.71a6.4,6.4,0,1,1,6.4-6.4A6.4,6.4,0,0,1,165.4,98.71Zm0-11.022a4.622,4.622,0,1,0,4.622,4.622A4.622,4.622,0,0,0,165.4,87.688Z" transform="translate(-57.4 0)" fill="#ecab38"/>
    <path id="Path_5468" data-name="Path 5468" d="M119.111,260.98a.889.889,0,0,1-.889-.889v-2.2a6.373,6.373,0,0,0-6.366-6.366h-7.712a6.373,6.373,0,0,0-6.366,6.366v2.2a.889.889,0,1,1-1.778,0v-2.2a8.154,8.154,0,0,1,8.144-8.144h7.711A8.154,8.154,0,0,1,120,257.894v2.2A.889.889,0,0,1,119.111,260.98Z" transform="translate(0 -149.276)" fill="#ecab38"/>
  </g>
</svg>
