<svg xmlns="http://www.w3.org/2000/svg" width="26.898" height="26.948" viewBox="0 0 26.898 26.948">
  <path id="Icon_feather-phone" data-name="Icon feather-phone" d="M28.563,22.051v3.831a2.554,2.554,0,0,1-2.784,2.554,25.27,25.27,0,0,1-11.02-3.92A24.9,24.9,0,0,1,7.1,16.854,25.27,25.27,0,0,1,3.178,5.784,2.554,2.554,0,0,1,5.719,3H9.55A2.554,2.554,0,0,1,12.1,5.2,16.4,16.4,0,0,0,13,8.784a2.554,2.554,0,0,1-.575,2.694L10.8,13.1a20.43,20.43,0,0,0,7.661,7.661l1.622-1.622a2.554,2.554,0,0,1,2.694-.575,16.4,16.4,0,0,0,3.588.894,2.554,2.554,0,0,1,2.2,2.592Z" transform="translate(-2.417 -2.25)" fill="none" stroke="#585757" stroke-linecap="round" stroke-linejoin="round" stroke-width="1.5"/>
</svg>
