<svg xmlns="http://www.w3.org/2000/svg" width="22.992" height="32.7" viewBox="0 0 22.992 32.7">
  <g id="pin" transform="translate(-76)">
    <g id="Group_16349" data-name="Group 16349" transform="translate(76)">
      <path id="Path_5469" data-name="Path 5469" d="M86.7,32.273a.958.958,0,0,0,1.594,0c2.267-3.4,5.607-7.6,7.934-11.872,1.861-3.415,2.765-6.328,2.765-8.905A11.5,11.5,0,0,0,76,11.5c0,2.577.9,5.49,2.765,8.905C81.091,24.669,84.436,28.88,86.7,32.273Zm.8-30.357a9.591,9.591,0,0,1,9.58,9.58c0,2.248-.828,4.861-2.532,7.988A120.49,120.49,0,0,1,87.5,30.041a120.5,120.5,0,0,1-7.048-10.557c-1.7-3.127-2.532-5.74-2.532-7.988a9.591,9.591,0,0,1,9.58-9.58Z" transform="translate(-76)" fill="#ecab38"/>
      <path id="Path_5470" data-name="Path 5470" d="M171.748,101.5A5.748,5.748,0,1,0,166,95.748,5.755,5.755,0,0,0,171.748,101.5Zm0-9.58a3.832,3.832,0,1,1-3.832,3.832A3.836,3.836,0,0,1,171.748,91.916Z" transform="translate(-160.252 -84.252)" fill="#ecab38"/>
    </g>
  </g>
</svg>
