<svg xmlns="http://www.w3.org/2000/svg" width="19" height="19" viewBox="0 0 19 19">
  <g id="svgexport-6" transform="translate(-0.529 -0.529)">
    <g id="layer1" transform="translate(0.529 0.529)">
      <path id="path52" d="M10.019,291.179a.952.952,0,0,0-.941.965v7.636a.951.951,0,1,0,1.9,0v-7.636a.952.952,0,0,0-.961-.965Zm5.543,1.914q-.046,0-.093,0a.955.955,0,0,0-.527,1.685,7.6,7.6,0,1,1-9.854.028.957.957,0,0,0,.106-1.346.948.948,0,0,0-1.34-.106,9.571,9.571,0,0,0,6.179,16.823,9.571,9.571,0,0,0,6.137-16.851.948.948,0,0,0-.609-.235Z" transform="translate(-0.529 -291.179)"/>
    </g>
  </g>
</svg>