<svg xmlns="http://www.w3.org/2000/svg" id="order" width="19.954" height="19.953" viewBox="0 0 19.954 19.953">
  <path id="Path_5459" data-name="Path 5459" d="M9.97,20.923a.413.413,0,0,1-.192-.047L.224,15.887A.416.416,0,0,1,0,15.519V6.166a.415.415,0,0,1,.6-.372l9.554,4.78a.416.416,0,0,1,.229.372v9.561a.416.416,0,0,1-.2.356A.41.41,0,0,1,9.97,20.923ZM.831,15.267l8.723,4.554V11.2L.831,6.838Z" transform="translate(0.001 -0.97)"/>
  <path id="Path_5460" data-name="Path 5460" d="M11.924,20.923a.415.415,0,0,1-.416-.416V10.946a.416.416,0,0,1,.229-.372l9.554-4.78a.416.416,0,0,1,.6.372v9.353a.416.416,0,0,1-.224.368l-9.554,4.988a.413.413,0,0,1-.192.047Zm.416-9.72v8.618l8.723-4.554V6.838Zm9.139,4.316h.008Z" transform="translate(-1.94 -0.97)"/>
  <path id="Path_5461" data-name="Path 5461" d="M.416,5.612a.415.415,0,0,1-.186-.787L9.8.044a.417.417,0,0,1,.372,0l9.554,4.78a.416.416,0,0,1-.372.744L9.983.881.6,5.568a.414.414,0,0,1-.186.044Z" transform="translate(0.001 0)"/>
  <path id="Path_5462" data-name="Path 5462" d="M15.978,12.934a.416.416,0,0,1-.416-.416V8.2L6.237,3.537a.416.416,0,0,1,.372-.744l9.554,4.78a.419.419,0,0,1,.229.372v4.573a.416.416,0,0,1-.416.416Z" transform="translate(-1.012 -0.464)"/>
</svg>