<svg xmlns="http://www.w3.org/2000/svg" width="48.761" height="48.911" viewBox="0 0 48.761 48.911">
  <g id="svgexport-55" transform="translate(1 1)">
    <g id="Group_16353" data-name="Group 16353" transform="translate(0)">
      <g id="_x34__4_" transform="translate(0)">
        <g id="Group_16352" data-name="Group 16352">
          <path id="Path_10435" data-name="Path 10435" d="M46.324,44.218,34.251,32.338a19.1,19.1,0,0,0,5.1-12.977A19.521,19.521,0,0,0,19.68,0,19.519,19.519,0,0,0,.006,19.361,19.519,19.519,0,0,0,19.68,38.722,19.786,19.786,0,0,0,32.063,34.4l12.12,11.927a1.53,1.53,0,0,0,2.14,0A1.474,1.474,0,0,0,46.324,44.218ZM19.68,35.743A16.516,16.516,0,0,1,3.033,19.361,16.516,16.516,0,0,1,19.68,2.979,16.516,16.516,0,0,1,36.327,19.361,16.516,16.516,0,0,1,19.68,35.743Z" transform="translate(-0.006)" fill="#fff" stroke="#fff" stroke-width="2"/>
        </g>
      </g>
    </g>
  </g>
</svg>